{
    "asset" : {
        "generator" : "Khronos glTF Blender I/O v1.8.19",
        "version" : "2.0"
    },
    "scene" : 0,
    "scenes" : [
        {
            "name" : "Scene",
            "nodes" : [
                2,
                5,
                8,
                11
            ]
        }
    ],
    "nodes" : [
        {
            "mesh" : 0,
            "name" : "Balloon"
        },
        {
            "mesh" : 1,
            "name" : "String1"
        },
        {
            "children" : [
                0,
                1
            ],
            "name" : "Ballon",
            "rotation" : [
                0.7071068286895752,
                0,
                0,
                0.7071067094802856
            ],
            "scale" : [
                0.009999999776482582,
                0.009999999776482582,
                0.009999999776482582
            ],
            "translation" : [
                0,
                0.0019624875858426094,
                0
            ]
        },
        {
            "mesh" : 2,
            "name" : "Balloon.001"
        },
        {
            "mesh" : 3,
            "name" : "String1.001"
        },
        {
            "children" : [
                3,
                4
            ],
            "name" : "Ballon.001",
            "rotation" : [
                0.7071068286895752,
                0,
                0,
                0.7071067094802856
            ],
            "scale" : [
                0.009999999776482582,
                0.009999999776482582,
                0.009999999776482582
            ],
            "translation" : [
                0,
                0.0019624875858426094,
                0
            ]
        },
        {
            "mesh" : 4,
            "name" : "Balloon.002"
        },
        {
            "mesh" : 5,
            "name" : "String1.002"
        },
        {
            "children" : [
                6,
                7
            ],
            "name" : "Ballon.002",
            "rotation" : [
                0.7071068286895752,
                0,
                0,
                0.7071067094802856
            ],
            "scale" : [
                0.009999999776482582,
                0.009999999776482582,
                0.009999999776482582
            ],
            "translation" : [
                0,
                0.0019624875858426094,
                0
            ]
        },
        {
            "mesh" : 6,
            "name" : "Balloon.003"
        },
        {
            "mesh" : 7,
            "name" : "String1.003"
        },
        {
            "children" : [
                9,
                10
            ],
            "name" : "Ballon.003",
            "rotation" : [
                0.7071068286895752,
                0,
                0,
                0.7071067094802856
            ],
            "scale" : [
                0.009999999776482582,
                0.009999999776482582,
                0.009999999776482582
            ],
            "translation" : [
                0,
                0.0019624875858426094,
                0
            ]
        }
    ],
    "materials" : [
        {
            "doubleSided" : true,
            "name" : "Ballon_co",
            "pbrMetallicRoughness" : {
                "baseColorFactor" : [
                    1,
                    0.33329999446868896,
                    0.3862000107765198,
                    0.9415584206581116
                ],
                "metallicFactor" : 0.12337662279605865,
                "roughnessFactor" : 0.7908835411071777
            }
        },
        {
            "doubleSided" : true,
            "name" : "String_co",
            "pbrMetallicRoughness" : {
                "baseColorFactor" : [
                    0.9090909361839294,
                    0.9090909361839294,
                    0.9090909361839294,
                    1
                ],
                "metallicFactor" : 0,
                "roughnessFactor" : 0.5527864098548889
            }
        },
        {
            "doubleSided" : true,
            "name" : "Ballon_co.001",
            "pbrMetallicRoughness" : {
                "baseColorFactor" : [
                    1,
                    0.33329999446868896,
                    0.3862000107765198,
                    0.9415584206581116
                ],
                "metallicFactor" : 0.12337662279605865,
                "roughnessFactor" : 0.7908835411071777
            }
        },
        {
            "doubleSided" : true,
            "name" : "String_co.001",
            "pbrMetallicRoughness" : {
                "baseColorFactor" : [
                    0.9090909361839294,
                    0.9090909361839294,
                    0.9090909361839294,
                    1
                ],
                "metallicFactor" : 0,
                "roughnessFactor" : 0.5527864098548889
            }
        },
        {
            "doubleSided" : true,
            "name" : "Ballon_co.002",
            "pbrMetallicRoughness" : {
                "baseColorFactor" : [
                    1,
                    0.33329999446868896,
                    0.3862000107765198,
                    0.9415584206581116
                ],
                "metallicFactor" : 0.12337662279605865,
                "roughnessFactor" : 0.7908835411071777
            }
        },
        {
            "doubleSided" : true,
            "name" : "String_co.002",
            "pbrMetallicRoughness" : {
                "baseColorFactor" : [
                    0.9090909361839294,
                    0.9090909361839294,
                    0.9090909361839294,
                    1
                ],
                "metallicFactor" : 0,
                "roughnessFactor" : 0.5527864098548889
            }
        },
        {
            "doubleSided" : true,
            "name" : "Ballon_co.003",
            "pbrMetallicRoughness" : {
                "baseColorFactor" : [
                    1,
                    0.33329999446868896,
                    0.3862000107765198,
                    0.9415584206581116
                ],
                "metallicFactor" : 0.12337662279605865,
                "roughnessFactor" : 0.7908835411071777
            }
        },
        {
            "doubleSided" : true,
            "name" : "String_co.003",
            "pbrMetallicRoughness" : {
                "baseColorFactor" : [
                    0.9090909361839294,
                    0.9090909361839294,
                    0.9090909361839294,
                    1
                ],
                "metallicFactor" : 0,
                "roughnessFactor" : 0.5527864098548889
            }
        }
    ],
    "meshes" : [
        {
            "name" : "Mesh.001",
            "primitives" : [
                {
                    "attributes" : {
                        "POSITION" : 0,
                        "NORMAL" : 1,
                        "TEXCOORD_0" : 2
                    },
                    "indices" : 3,
                    "material" : 0
                }
            ]
        },
        {
            "name" : "Mesh",
            "primitives" : [
                {
                    "attributes" : {
                        "POSITION" : 4,
                        "NORMAL" : 5,
                        "TEXCOORD_0" : 6
                    },
                    "indices" : 7,
                    "material" : 1
                }
            ]
        },
        {
            "name" : "Mesh.003",
            "primitives" : [
                {
                    "attributes" : {
                        "POSITION" : 8,
                        "NORMAL" : 9,
                        "TEXCOORD_0" : 10
                    },
                    "indices" : 3,
                    "material" : 2
                }
            ]
        },
        {
            "name" : "Mesh.002",
            "primitives" : [
                {
                    "attributes" : {
                        "POSITION" : 11,
                        "NORMAL" : 12,
                        "TEXCOORD_0" : 13
                    },
                    "indices" : 7,
                    "material" : 3
                }
            ]
        },
        {
            "name" : "Mesh.005",
            "primitives" : [
                {
                    "attributes" : {
                        "POSITION" : 14,
                        "NORMAL" : 15,
                        "TEXCOORD_0" : 16
                    },
                    "indices" : 3,
                    "material" : 4
                }
            ]
        },
        {
            "name" : "Mesh.004",
            "primitives" : [
                {
                    "attributes" : {
                        "POSITION" : 17,
                        "NORMAL" : 18,
                        "TEXCOORD_0" : 19
                    },
                    "indices" : 7,
                    "material" : 5
                }
            ]
        },
        {
            "name" : "Mesh.007",
            "primitives" : [
                {
                    "attributes" : {
                        "POSITION" : 20,
                        "NORMAL" : 21,
                        "TEXCOORD_0" : 22
                    },
                    "indices" : 3,
                    "material" : 6
                }
            ]
        },
        {
            "name" : "Mesh.006",
            "primitives" : [
                {
                    "attributes" : {
                        "POSITION" : 23,
                        "NORMAL" : 24,
                        "TEXCOORD_0" : 25
                    },
                    "indices" : 7,
                    "material" : 7
                }
            ]
        }
    ],
    "accessors" : [
        {
            "bufferView" : 0,
            "componentType" : 5126,
            "count" : 2333,
            "max" : [
                0.4435734748840332,
                0.443573534488678,
                -0.18714749813079834
            ],
            "min" : [
                -0.44357359409332275,
                -0.44357365369796753,
                -1.375515103340149
            ],
            "type" : "VEC3"
        },
        {
            "bufferView" : 1,
            "componentType" : 5126,
            "count" : 2333,
            "type" : "VEC3"
        },
        {
            "bufferView" : 2,
            "componentType" : 5126,
            "count" : 2333,
            "type" : "VEC2"
        },
        {
            "bufferView" : 3,
            "componentType" : 5123,
            "count" : 13200,
            "type" : "SCALAR"
        },
        {
            "bufferView" : 4,
            "componentType" : 5126,
            "count" : 9408,
            "max" : [
                0.02144283428788185,
                0.051981985569000244,
                0.47144103050231934
            ],
            "min" : [
                -0.027617787942290306,
                -0.13034528493881226,
                -0.2623702883720398
            ],
            "type" : "VEC3"
        },
        {
            "bufferView" : 5,
            "componentType" : 5126,
            "count" : 9408,
            "type" : "VEC3"
        },
        {
            "bufferView" : 6,
            "componentType" : 5126,
            "count" : 9408,
            "type" : "VEC2"
        },
        {
            "bufferView" : 7,
            "componentType" : 5123,
            "count" : 55668,
            "type" : "SCALAR"
        },
        {
            "bufferView" : 8,
            "componentType" : 5126,
            "count" : 2333,
            "max" : [
                0.4435734748840332,
                0.443573534488678,
                -0.18714749813079834
            ],
            "min" : [
                -0.44357359409332275,
                -0.44357365369796753,
                -1.375515103340149
            ],
            "type" : "VEC3"
        },
        {
            "bufferView" : 9,
            "componentType" : 5126,
            "count" : 2333,
            "type" : "VEC3"
        },
        {
            "bufferView" : 10,
            "componentType" : 5126,
            "count" : 2333,
            "type" : "VEC2"
        },
        {
            "bufferView" : 11,
            "componentType" : 5126,
            "count" : 9408,
            "max" : [
                0.02144283428788185,
                0.051981985569000244,
                0.47144103050231934
            ],
            "min" : [
                -0.027617787942290306,
                -0.13034528493881226,
                -0.2623702883720398
            ],
            "type" : "VEC3"
        },
        {
            "bufferView" : 12,
            "componentType" : 5126,
            "count" : 9408,
            "type" : "VEC3"
        },
        {
            "bufferView" : 13,
            "componentType" : 5126,
            "count" : 9408,
            "type" : "VEC2"
        },
        {
            "bufferView" : 14,
            "componentType" : 5126,
            "count" : 2333,
            "max" : [
                0.4435734748840332,
                0.443573534488678,
                -0.18714749813079834
            ],
            "min" : [
                -0.44357359409332275,
                -0.44357365369796753,
                -1.375515103340149
            ],
            "type" : "VEC3"
        },
        {
            "bufferView" : 15,
            "componentType" : 5126,
            "count" : 2333,
            "type" : "VEC3"
        },
        {
            "bufferView" : 16,
            "componentType" : 5126,
            "count" : 2333,
            "type" : "VEC2"
        },
        {
            "bufferView" : 17,
            "componentType" : 5126,
            "count" : 9408,
            "max" : [
                0.02144283428788185,
                0.051981985569000244,
                0.47144103050231934
            ],
            "min" : [
                -0.027617787942290306,
                -0.13034528493881226,
                -0.2623702883720398
            ],
            "type" : "VEC3"
        },
        {
            "bufferView" : 18,
            "componentType" : 5126,
            "count" : 9408,
            "type" : "VEC3"
        },
        {
            "bufferView" : 19,
            "componentType" : 5126,
            "count" : 9408,
            "type" : "VEC2"
        },
        {
            "bufferView" : 20,
            "componentType" : 5126,
            "count" : 2333,
            "max" : [
                0.4435734748840332,
                0.443573534488678,
                -0.18714749813079834
            ],
            "min" : [
                -0.44357359409332275,
                -0.44357365369796753,
                -1.375515103340149
            ],
            "type" : "VEC3"
        },
        {
            "bufferView" : 21,
            "componentType" : 5126,
            "count" : 2333,
            "type" : "VEC3"
        },
        {
            "bufferView" : 22,
            "componentType" : 5126,
            "count" : 2333,
            "type" : "VEC2"
        },
        {
            "bufferView" : 23,
            "componentType" : 5126,
            "count" : 9408,
            "max" : [
                0.02144283428788185,
                0.051981985569000244,
                0.47144103050231934
            ],
            "min" : [
                -0.027617787942290306,
                -0.13034528493881226,
                -0.2623702883720398
            ],
            "type" : "VEC3"
        },
        {
            "bufferView" : 24,
            "componentType" : 5126,
            "count" : 9408,
            "type" : "VEC3"
        },
        {
            "bufferView" : 25,
            "componentType" : 5126,
            "count" : 9408,
            "type" : "VEC2"
        }
    ],
    "bufferViews" : [
        {
            "buffer" : 0,
            "byteLength" : 27996,
            "byteOffset" : 0
        },
        {
            "buffer" : 0,
            "byteLength" : 27996,
            "byteOffset" : 27996
        },
        {
            "buffer" : 0,
            "byteLength" : 18664,
            "byteOffset" : 55992
        },
        {
            "buffer" : 0,
            "byteLength" : 26400,
            "byteOffset" : 74656
        },
        {
            "buffer" : 0,
            "byteLength" : 112896,
            "byteOffset" : 101056
        },
        {
            "buffer" : 0,
            "byteLength" : 112896,
            "byteOffset" : 213952
        },
        {
            "buffer" : 0,
            "byteLength" : 75264,
            "byteOffset" : 326848
        },
        {
            "buffer" : 0,
            "byteLength" : 111336,
            "byteOffset" : 402112
        },
        {
            "buffer" : 0,
            "byteLength" : 27996,
            "byteOffset" : 513448
        },
        {
            "buffer" : 0,
            "byteLength" : 27996,
            "byteOffset" : 541444
        },
        {
            "buffer" : 0,
            "byteLength" : 18664,
            "byteOffset" : 569440
        },
        {
            "buffer" : 0,
            "byteLength" : 112896,
            "byteOffset" : 588104
        },
        {
            "buffer" : 0,
            "byteLength" : 112896,
            "byteOffset" : 701000
        },
        {
            "buffer" : 0,
            "byteLength" : 75264,
            "byteOffset" : 813896
        },
        {
            "buffer" : 0,
            "byteLength" : 27996,
            "byteOffset" : 889160
        },
        {
            "buffer" : 0,
            "byteLength" : 27996,
            "byteOffset" : 917156
        },
        {
            "buffer" : 0,
            "byteLength" : 18664,
            "byteOffset" : 945152
        },
        {
            "buffer" : 0,
            "byteLength" : 112896,
            "byteOffset" : 963816
        },
        {
            "buffer" : 0,
            "byteLength" : 112896,
            "byteOffset" : 1076712
        },
        {
            "buffer" : 0,
            "byteLength" : 75264,
            "byteOffset" : 1189608
        },
        {
            "buffer" : 0,
            "byteLength" : 27996,
            "byteOffset" : 1264872
        },
        {
            "buffer" : 0,
            "byteLength" : 27996,
            "byteOffset" : 1292868
        },
        {
            "buffer" : 0,
            "byteLength" : 18664,
            "byteOffset" : 1320864
        },
        {
            "buffer" : 0,
            "byteLength" : 112896,
            "byteOffset" : 1339528
        },
        {
            "buffer" : 0,
            "byteLength" : 112896,
            "byteOffset" : 1452424
        },
        {
            "buffer" : 0,
            "byteLength" : 75264,
            "byteOffset" : 1565320
        }
    ],
    "buffers" : [
        {
            "byteLength" : 1640584,
            "uri" : "data:application/octet-stream;base64,"
        }
    ]
}
